<svg xmlns="http://www.w3.org/2000/svg" width="960" height="160" viewBox="0 0 960 160">
  <rect x="0" y="0" width="960" height="160" fill="#3a843a"/>
  <rect x="0" y="105" width="960" height="55" fill="#8b5e3c"/>
  <rect x="0" y="80" width="960" height="16" fill="#5a9e2f"/>
  <g fill="#5a9e2f"><polygon points="0,88 4,66 8,88"/><polygon points="10,88 16,72 23,88"/><polygon points="25,88 29,64 33,88"/><polygon points="35,88 38,73 41,88"/><polygon points="43,88 48,68 54,88"/><polygon points="56,88 59,65 63,88"/><polygon points="65,88 69,70 74,88"/><polygon points="76,88 82,74 88,88"/><polygon points="90,88 93,66 97,88"/><polygon points="99,88 103,69 107,88"/><polygon points="109,88 114,72 119,88"/><polygon points="121,88 124,64 127,88"/><polygon points="129,88 133,66 137,88"/><polygon points="139,88 145,72 152,88"/><polygon points="154,88 158,64 162,88"/><polygon points="164,88 167,73 170,88"/><polygon points="172,88 177,68 183,88"/><polygon points="185,88 188,65 192,88"/><polygon points="194,88 198,70 203,88"/><polygon points="205,88 211,74 217,88"/><polygon points="219,88 222,66 226,88"/><polygon points="228,88 232,69 236,88"/><polygon points="238,88 243,72 248,88"/><polygon points="250,88 253,64 256,88"/><polygon points="258,88 262,66 266,88"/><polygon points="268,88 274,72 281,88"/><polygon points="283,88 287,64 291,88"/><polygon points="293,88 296,73 299,88"/><polygon points="301,88 306,68 312,88"/><polygon points="314,88 317,65 321,88"/><polygon points="323,88 327,70 332,88"/><polygon points="334,88 340,74 346,88"/><polygon points="348,88 351,66 355,88"/><polygon points="357,88 361,69 365,88"/><polygon points="367,88 372,72 377,88"/><polygon points="379,88 382,64 385,88"/><polygon points="387,88 391,66 395,88"/><polygon points="397,88 403,72 410,88"/><polygon points="412,88 416,64 420,88"/><polygon points="422,88 425,73 428,88"/><polygon points="430,88 435,68 441,88"/><polygon points="443,88 446,65 450,88"/><polygon points="452,88 456,70 461,88"/><polygon points="463,88 469,74 475,88"/><polygon points="477,88 480,66 484,88"/><polygon points="486,88 490,69 494,88"/><polygon points="496,88 501,72 506,88"/><polygon points="508,88 511,64 514,88"/><polygon points="516,88 520,66 524,88"/><polygon points="526,88 532,72 539,88"/><polygon points="541,88 545,64 549,88"/><polygon points="551,88 554,73 557,88"/><polygon points="559,88 564,68 570,88"/><polygon points="572,88 575,65 579,88"/><polygon points="581,88 585,70 590,88"/><polygon points="592,88 598,74 604,88"/><polygon points="606,88 609,66 613,88"/><polygon points="615,88 619,69 623,88"/><polygon points="625,88 630,72 635,88"/><polygon points="637,88 640,64 643,88"/><polygon points="645,88 649,66 653,88"/><polygon points="655,88 661,72 668,88"/><polygon points="670,88 674,64 678,88"/><polygon points="680,88 683,73 686,88"/><polygon points="688,88 693,68 699,88"/><polygon points="701,88 704,65 708,88"/><polygon points="710,88 714,70 719,88"/><polygon points="721,88 727,74 733,88"/><polygon points="735,88 738,66 742,88"/><polygon points="744,88 748,69 752,88"/><polygon points="754,88 759,72 764,88"/><polygon points="766,88 769,64 772,88"/><polygon points="774,88 778,66 782,88"/><polygon points="784,88 790,72 797,88"/><polygon points="799,88 803,64 807,88"/><polygon points="809,88 812,73 815,88"/><polygon points="817,88 822,68 828,88"/><polygon points="830,88 833,65 837,88"/><polygon points="839,88 843,70 848,88"/><polygon points="850,88 856,74 862,88"/><polygon points="864,88 867,66 871,88"/><polygon points="873,88 877,69 881,88"/><polygon points="883,88 888,72 893,88"/><polygon points="895,88 898,64 901,88"/><polygon points="903,88 907,66 911,88"/><polygon points="913,88 919,72 926,88"/><polygon points="928,88 932,64 936,88"/><polygon points="938,88 941,73 944,88"/><polygon points="946,88 951,68 957,88"/><polygon points="959,88 962,65 966,88"/></g>
  <g fill="#7a4e2d" stroke="#5c3a1e" stroke-width="1"><rect x="30" y="35" width="9" height="58" rx="2"/><rect x="270" y="35" width="9" height="58" rx="2"/><rect x="510" y="35" width="9" height="58" rx="2"/><rect x="750" y="35" width="9" height="58" rx="2"/></g>
  <g stroke="#a0825a" stroke-width="3" fill="none"><line x1="0" y1="50" x2="960" y2="50"/><line x1="0" y1="68" x2="960" y2="68"/></g>
</svg>